# xmcd
#
# Track frame offsets: 
#        150
#        39149
#        67648
#        84522
#        113396
#        135145
#        171369
#        192143
#        207517
#        231891
#        256790
#        294514
#
# Disc length: 4314 seconds
#
# Revision: 0
# Processed by: cddbd v1.5.2PL0 Copyright (c) Steve Scherf et al.
# Submitted via: ExactAudioCopy v0.99pb2
#
DISCID=9010d80c
DTITLE=Leonard Cohen - Songs From The Road
DYEAR=1900
DGENRE=
TTITLE0=Lover, Lover, Lover (Ramat Gan Stadium, Tel Aviv, Israel, Sept
TTITLE0=ember 24, 2009)
TTITLE1=Bird on a Wire (Clyde Auditorium, Glasgow, Scotland, November 
TTITLE1=6, 2008)
TTITLE2=Chelsea Hotel (Royal Albert Hall, London, England, November 17
TTITLE2=, 2008)
TTITLE3=Heart With No Companion (Oberhausen King Pilsener Arena, Oberh
TTITLE3=ausen, Germany, November 2, 2008)
TTITLE4=That Don't Make It Junk (O2 Arena, London, England, November 1
TTITLE4=3, 2008)
TTITLE5=Waiting For the Miracle (HP Pavilion, San Jose, California, No
TTITLE5=vember 13, 2009)
TTITLE6=Avalanche (Gothenburg Scandinavium, Gothenburg, Sweden, Octobe
TTITLE6=r 12, 2008)
TTITLE7=Suzanne (MENA Arena, Manchester, England, November 30, 2008)
TTITLE8=The Partisan (Hartwall Arena, Helsinki, Finland, October 10, 2
TTITLE8=008)
TTITLE9=Famous Blue Raincoat (O2 Arena, London, England, November 13, 
TTITLE9=2008)
TTITLE10=Hallelujah (Coachella Music Festival, Indio, California, Apri
TTITLE10=l 17, 2009)
TTITLE11=Closing Time (John Labatt Centre, London, Ontario, May 24, 20
TTITLE11=09)
EXTD=
EXTT0=
EXTT1=
EXTT2=
EXTT3=
EXTT4=
EXTT5=
EXTT6=
EXTT7=
EXTT8=
EXTT9=
EXTT10=
EXTT11=
PLAYORDER=
